<svg xmlns="http://www.w3.org/2000/svg" viewBox="0 0 233.49 53.59"><defs><style>.cls-1{fill:#1c6ca2;}.cls-2{fill:#2180b3;}.cls-3{fill:#299fc0;}.cls-4{fill:#1e68a1;}</style></defs><title>invisalign</title><g id="Capa_2" data-name="Capa 2"><g id="Capa_1-2" data-name="Capa 1"><path class="cls-1" d="M31.06,30.37s-.29,10.53,14.7,14.7C41.42,30.09,31.06,30.37,31.06,30.37Z"></path><path class="cls-1" d="M22.53,21.91s.29-10.52-14.7-14.7C12.17,22.2,22.53,21.91,22.53,21.91Z"></path><path class="cls-1" d="M26.82,32.8s-7.64,7.24,0,20.79C34.35,39.93,26.82,32.8,26.82,32.8Z"></path><path class="cls-1" d="M26.77,20.79s7.65-7.24,0-20.79C19.24,13.67,26.77,20.79,26.77,20.79Z"></path><path class="cls-1" d="M32.8,26.77s7.24,7.65,20.79,0C39.93,19.24,32.8,26.77,32.8,26.77Z"></path><path class="cls-1" d="M20.79,26.82s-7.24-7.64-20.79,0C13.67,34.35,20.79,26.82,20.79,26.82Z"></path><path class="cls-1" d="M31,21.88s10.53.28,14.7-14.7C30.74,11.52,31,21.88,31,21.88Z"></path><path class="cls-1" d="M22.57,30.41S12,30.12,7.87,45.11C22.85,40.77,22.57,30.41,22.57,30.41Z"></path><path class="cls-2" d="M42.66,37.94c-4.89-7.75-11.6-7.57-11.6-7.57s-.18,6.87,7.65,11.71A19.64,19.64,0,0,0,42.66,37.94Z"></path><path class="cls-2" d="M22.53,21.91s.17-6.3-6.71-11.09A19.55,19.55,0,0,0,11.38,15C16.22,22.09,22.53,21.91,22.53,21.91Z"></path><path class="cls-2" d="M26.82,32.8S22,37.35,23.83,46a19.41,19.41,0,0,0,3,.22A19.15,19.15,0,0,0,29.75,46C31.55,37.29,26.82,32.8,26.82,32.8Z"></path><path class="cls-2" d="M26.77,20.79s4.79-4.54,3-13.16a20.73,20.73,0,0,0-3-.22,20.51,20.51,0,0,0-3,.22C22,16.31,26.77,20.79,26.77,20.79Z"></path><path class="cls-2" d="M32.8,26.77s4.54,4.78,13.16,3a20,20,0,0,0,0-5.92C37.29,22,32.8,26.77,32.8,26.77Z"></path><path class="cls-2" d="M20.79,26.82s-4.54-4.78-13.16-3a20.09,20.09,0,0,0,0,5.93C16.3,31.55,20.79,26.82,20.79,26.82Z"></path><path class="cls-2" d="M31,21.88s6.39.17,11.19-6.84a19.5,19.5,0,0,0-4.43-4.22C30.86,15.64,31,21.88,31,21.88Z"></path><path class="cls-2" d="M22.57,30.41s-6.8-.18-11.64,7.53a19.89,19.89,0,0,0,4,4.14C22.75,37.19,22.57,30.41,22.57,30.41Z"></path><path class="cls-3" d="M38.2,33a12.61,12.61,0,0,0-7.14-2.66,12.83,12.83,0,0,0,2.77,7.35A13,13,0,0,0,38.2,33Z"></path><path class="cls-3" d="M22.53,21.91a12.48,12.48,0,0,0-2.13-6.42A13,13,0,0,0,16,19.64,12.37,12.37,0,0,0,22.53,21.91Z"></path><path class="cls-3" d="M26.82,32.8a12.71,12.71,0,0,0-3.15,6.6,12.76,12.76,0,0,0,6.26,0A12.56,12.56,0,0,0,26.82,32.8Z"></path><path class="cls-3" d="M26.77,20.79a12.65,12.65,0,0,0,3.15-6.6,13.4,13.4,0,0,0-3.12-.39,13,13,0,0,0-3.14.4A12.5,12.5,0,0,0,26.77,20.79Z"></path><path class="cls-3" d="M39.4,23.66a12.56,12.56,0,0,0-6.6,3.11,12.71,12.71,0,0,0,6.6,3.15,12.76,12.76,0,0,0,0-6.26Z"></path><path class="cls-3" d="M20.79,26.82a12.65,12.65,0,0,0-6.6-3.15,13.48,13.48,0,0,0-.39,3.13,12.9,12.9,0,0,0,.4,3.13A12.55,12.55,0,0,0,20.79,26.82Z"></path><path class="cls-3" d="M33.18,15.48A12.35,12.35,0,0,0,31,21.88a12.5,12.5,0,0,0,6.61-2.25A13,13,0,0,0,33.18,15.48Z"></path><path class="cls-3" d="M22.57,30.41A12.73,12.73,0,0,0,15.4,33a13,13,0,0,0,4.37,4.68A12.68,12.68,0,0,0,22.57,30.41Z"></path><path class="cls-4" d="M152.71,35.82v-3a11.19,11.19,0,0,1-3,2,8.59,8.59,0,0,1-3.39.68,9.3,9.3,0,0,1-6.9-2.77,9.43,9.43,0,0,1-2.75-6.93,10.09,10.09,0,0,1,.67-3.68,9.41,9.41,0,0,1,2-3.06,8.9,8.9,0,0,1,3-2.14,10.17,10.17,0,0,1,7.34,0,10.75,10.75,0,0,1,3,2V16.82h3v19Zm-12.22-10a6,6,0,0,0,1.73,4.39A5.66,5.66,0,0,0,146.46,32a5.55,5.55,0,0,0,4-1.78A5.79,5.79,0,0,0,152.24,26a6,6,0,0,0-1.73-4.35,5.5,5.5,0,0,0-4.12-1.82,5.91,5.91,0,0,0-5.9,5.95Z"></path><path class="cls-4" d="M191.05,44c-4,1.87-10.34-1.17-10.34-1.17l1.62-3.52a10.16,10.16,0,0,0,7.5,1c4.1-1.62,3.88-5.17,3.88-5.17V32.86a11.19,11.19,0,0,1-3,2,8.59,8.59,0,0,1-3.39.68,9.3,9.3,0,0,1-6.9-2.77,9.44,9.44,0,0,1-2.76-6.93,9.9,9.9,0,0,1,.68-3.68,9.24,9.24,0,0,1,2-3.06,9,9,0,0,1,3-2.14,10.17,10.17,0,0,1,7.34,0,10.65,10.65,0,0,1,3,2V16.82h3V35.11A9.12,9.12,0,0,1,191.05,44Zm-9.57-18.17a6,6,0,0,0,1.73,4.39A5.71,5.71,0,0,0,187.46,32a5.51,5.51,0,0,0,4-1.78A5.76,5.76,0,0,0,193.24,26a6.08,6.08,0,0,0-1.73-4.35,5.51,5.51,0,0,0-4.11-1.82,5.91,5.91,0,0,0-5.92,5.95Z"></path><path class="cls-4" d="M205.71,35.82h-3v-19h3V18.7c0-.82,1.45-1.43,2.29-1.81a6.4,6.4,0,0,1,2.8-.58,7.61,7.61,0,0,1,5.77,2.13,8.85,8.85,0,0,1,2.14,6.11V35.82h-4V25.27a7.15,7.15,0,0,0-1.11-4.37,4,4,0,0,0-3.37-1.42,3.6,3.6,0,0,0-3.36,1.68c-.74,1.11-1.16,3-1.16,5.53Z"></path><path class="cls-3" d="M79.71,35.82h-4v-19h3V18.7a12.3,12.3,0,0,1,2.5-1.81,7,7,0,0,1,2.92-.58,7.23,7.23,0,0,1,5.6,2.13,8.8,8.8,0,0,1,2,6.11V35.82h-4V25.27c0-2-.17-3.42-.89-4.37a3.8,3.8,0,0,0-3.27-1.42,3,3,0,0,0-3,1.68c-.75,1.11-.83,3-.83,5.53Z"></path><path class="cls-4" d="M170.71,35.82v-19h4v19Z"></path><path class="cls-4" d="M169.94,10.53a2.79,2.79,0,1,1,2.78,2.78A2.78,2.78,0,0,1,169.94,10.53Z"></path><path class="cls-4" d="M161.71,35.82v-28h4v28Z"></path><path class="cls-3" d="M113.71,35.82v-19h4v19Z"></path><path class="cls-3" d="M113,10.53a2.79,2.79,0,1,1,2.78,2.78A2.78,2.78,0,0,1,113,10.53Z"></path><path class="cls-3" d="M66.71,35.82v-19h4v19Z"></path><path class="cls-3" d="M65.55,10.53a2.79,2.79,0,1,1,2.78,2.78A2.79,2.79,0,0,1,65.55,10.53Z"></path><polygon class="cls-3" points="92.85 16.82 97.39 16.82 102.24 27.34 107.5 16.82 112.04 16.82 102.13 36 92.85 16.82"></polygon><path class="cls-3" d="M128.57,24.39c-1.43-.46-3.32-1.2-3.32-2.29s.81-1.93,2.42-2.15a5.12,5.12,0,0,1,3.43,1l2-3.05a9.3,9.3,0,0,0-6-1.46c-3.5.49-5.67,2.64-5.67,5.63,0,3.72,4.42,5.14,5.88,5.61,2.3.73,3.11,1.36,3.11,2.39,0,1.95-2.55,2.1-3.33,2.1a11.24,11.24,0,0,1-4.23-1.3l-1.92,3a15,15,0,0,0,6.15,1.78c3.44,0,7.14-1.76,7.14-5.61S130.12,24.89,128.57,24.39Z"></path><path class="cls-1" d="M229.37,16.36a4.11,4.11,0,1,0,4.12,4.11A4.12,4.12,0,0,0,229.37,16.36Zm3.37,4.11a3.38,3.38,0,1,1-3.37-3.37A3.38,3.38,0,0,1,232.74,20.47Z"></path><path class="cls-1" d="M227.71,18.39A6.25,6.25,0,0,1,229,18.3a2.45,2.45,0,0,1,1.47.34.84.84,0,0,1,.3.76c0,.53,0,.89-1,1v0c1,.11.71.62.84,1,.16.57.38.34.48,1.34h-.67c-.08-1-.19-.59-.33-1.09s-.42-.91-1-.91h-.32v2h-1Zm.71,1.83h.66c.68,0,1.13-.3,1.13-.76s-.47-.75-1.15-.75a3.91,3.91,0,0,0-.64,0Z"></path></g></g></svg>