<?xml version="1.0" encoding="utf-8"?>
<!-- Generator: Adobe Illustrator 16.0.0, SVG Export Plug-In . SVG Version: 6.00 Build 0)  -->
<!DOCTYPE svg PUBLIC "-//W3C//DTD SVG 1.1//EN" "http://www.w3.org/Graphics/SVG/1.1/DTD/svg11.dtd">
<svg version="1.1" id="Capa_1" xmlns="http://www.w3.org/2000/svg" xmlns:xlink="http://www.w3.org/1999/xlink" x="0px" y="0px"
	 width="478.334px" height="94.225px" viewBox="0 0 478.334 94.225" enable-background="new 0 0 478.334 94.225"
	 xml:space="preserve">
<path fill="#0272AA" d="M228.808,24.682c0.096,0.066,0.208,0.117,0.286,0.197c4.863,5.015,9.707,10.047,14.595,15.039
	c2.276,2.326,4.629,4.584,6.979,6.84c0.31,0.297,0.81,0.396,1.222,0.588c0.146-0.414,0.416-0.825,0.426-1.242
	c0.145-5.764,0.248-11.528,0.369-17.293c0.067-3.217,0.084-6.434,0.254-9.645c0.092-1.74,0.668-2.166,2.444-2.389
	c0.31-0.037,0.608-0.138,0.912-0.21c-0.015-0.108-0.028-0.219-0.043-0.326h-10.908c-0.01,0.112-0.021,0.226-0.032,0.337
	c0.276,0.066,0.556,0.194,0.832,0.19c2.303-0.035,3.28,0.496,3.332,3.559c0.063,3.884,0.185,7.765,0.246,11.646
	c0.036,2.324,0.006,4.65,0.006,7.039c-0.312-0.297-0.625-0.577-0.918-0.879c-6.996-7.211-13.983-14.428-20.994-21.625
	c-0.374-0.383-0.933-0.586-1.406-0.873c-0.138,0.551-0.278,1.102-0.415,1.654c-0.009,0.036,0,0.077-0.001,0.116
	c-0.097,6.786-0.183,13.573-0.297,20.36c-0.037,2.194-0.108,4.392-0.245,6.581c-0.087,1.406-0.492,1.72-1.881,1.898
	c-0.564,0.071-1.115,0.233-1.674,0.355c0.021,0.118,0.043,0.239,0.064,0.358h11.222c0.017-0.139,0.034-0.276,0.052-0.414
	c-0.617-0.115-1.232-0.312-1.852-0.324c-1.133-0.023-1.765-0.586-1.963-1.643c-0.179-0.961-0.371-1.934-0.398-2.904
	c-0.156-5.607-0.266-11.217-0.389-16.824C228.691,24.798,228.748,24.74,228.808,24.682"/>
<path fill="#0272AA" d="M418.41,24.783l0.435,0.019c0.097-0.434,0.256-0.863,0.276-1.299c0.078-1.566,0.075-3.138,0.164-4.703
	c0.139-2.422,0.284-2.113-1.883-2.303c-0.234-0.021-0.464-0.078-0.695-0.123c-4.028-0.785-8.076-1.082-12.171-0.59
	c-8.222,0.987-13.51,6.166-14.225,14.393c-0.547,6.289,1.625,11.506,7.415,14.594c6.368,3.396,13.102,3.348,19.89,1.418
	c1.868-0.53,1.952-0.815,1.954-2.809c0.003-2.67-0.008-5.34,0.004-8.01c0.009-2,0.444-2.492,2.376-2.797
	c0.259-0.04,0.509-0.146,0.915-0.265c-1.149-0.729-11.903-0.625-12.56,0.129c0.467,0.053,0.83,0.107,1.194,0.13
	c2.074,0.128,2.747,0.791,2.765,2.826c0.021,2.591-0.024,5.184,0.021,7.774c0.019,1.049-0.411,1.67-1.417,1.816
	c-5.463,0.803-10.29-0.381-13.748-4.958c-3.682-4.874-4.004-10.341-2.133-15.981c0.859-2.59,2.748-4.398,5.299-5.346
	c4.26-1.583,8.465-1.308,12.535,0.727c1.792,0.896,2.962,2.285,3.288,4.314C418.166,24.096,418.308,24.436,418.41,24.783"/>
<path fill="#0272AA" d="M270.617,18.447c0.043,0.521,0.09,0.824,0.09,1.129c0.004,6.717,0.019,13.432-0.009,20.146
	c-0.006,1.566-0.121,3.135-0.256,4.695c-0.092,1.066-0.512,1.879-1.817,1.853c-0.442-0.009-0.892,0.237-1.522,0.42
	c1.149,0.631,12.711,0.528,13.381-0.122c-0.709-0.1-1.301-0.18-1.892-0.27c-1.909-0.291-2.396-0.814-2.51-2.742
	c-0.074-1.252-0.172-2.504-0.176-3.758c-0.019-6.637-0.009-13.273-0.009-19.91v-1.254c1.779,0,3.388-0.059,4.988,0.02
	c1.086,0.054,2.184,0.213,3.236,0.48c0.963,0.246,1.648,0.869,1.691,2c0.014,0.346,0.213,0.685,0.328,1.026l0.479-0.038
	c0.096-1.994,0.189-3.986,0.293-6.143c-1.486,0.1-2.691,0.241-3.896,0.249c-5.381,0.035-10.762,0.091-16.141,0.015
	c-1.979-0.027-3.949-0.424-5.928-0.588c-0.27-0.021-0.766,0.287-0.822,0.524c-0.369,1.521-0.67,3.062-0.927,4.605
	c-0.046,0.272,0.218,0.6,0.341,0.9c0.211-0.23,0.514-0.429,0.619-0.701c0.406-1.064,1.068-1.938,2.223-2.041
	C265.103,18.706,267.832,18.606,270.617,18.447"/>
<path fill="#0272AA" d="M328.2,16.23c-0.008,0.11-0.016,0.224-0.023,0.335c0.239,0.068,0.475,0.178,0.719,0.201
	c2.651,0.262,3.043,0.686,3.049,3.377c0.013,6.238,0.043,12.479,0.021,18.716c-0.008,1.84-0.117,3.682-0.263,5.516
	c-0.089,1.125-0.591,1.928-1.935,1.879c-0.399-0.017-0.811,0.229-1.215,0.354c0.01,0.128,0.021,0.256,0.029,0.385
	c0.344,0.052,0.688,0.155,1.029,0.146c1.684-0.047,3.369-0.211,5.051-0.174c4.152,0.094,8.304,0.295,12.455,0.393
	c0.523,0.013,1.38-0.213,1.525-0.561c0.808-1.916,1.215-3.929,0.729-6.021c-0.01-0.039-0.135-0.053-0.37-0.137
	c-0.112,0.391-0.244,0.766-0.332,1.15c-0.317,1.406-0.888,2.617-2.43,3.022c-2.44,0.642-4.904,0.621-7.31-0.082
	c-0.55-0.161-1.195-0.863-1.322-1.426c-0.299-1.322-0.418-2.711-0.426-4.073c-0.043-6.044-0.025-12.085-0.011-18.128
	c0.002-0.819,0.072-1.646,0.183-2.459c0.136-0.998,0.662-1.641,1.75-1.73c0.658-0.055,1.312-0.188,1.967-0.288
	c-0.012-0.131-0.023-0.263-0.037-0.393L328.2,16.23L328.2,16.23z"/>
<path fill="#0272AA" d="M427.294,46.572c0.009,0.153,0.017,0.307,0.024,0.46c0.397,0.037,0.796,0.107,1.193,0.107
	c3.405,0.01,6.812,0.006,10.217,0.006c0.196,0,0.403,0.037,0.587-0.012c0.189-0.053,0.355-0.191,0.533-0.293
	c-0.179-0.146-0.336-0.383-0.534-0.424c-3.038-0.605-3.041-0.6-3.357-3.639c-0.037-0.351-0.056-0.703-0.056-1.056
	c-0.016-6.396-0.032-12.791-0.032-19.184c-0.001-1.138-0.002-2.279,0.121-3.406c0.187-1.701,0.585-2.047,2.246-2.319
	c0.355-0.06,0.698-0.194,1.048-0.296c-0.021-0.096-0.042-0.19-0.063-0.287h-12.024c-0.019,0.105-0.035,0.21-0.054,0.314
	c0.265,0.108,0.519,0.27,0.792,0.318c2.455,0.446,2.736,0.772,2.742,3.29c0.015,6.277,0.042,12.556,0.022,18.832
	c-0.006,1.84-0.122,3.681-0.245,5.517c-0.07,1.055-0.549,1.766-1.771,1.756C428.222,46.255,427.758,46.462,427.294,46.572"/>
<path fill="#09AEDB" d="M236.305,63.868c1.956,4.024,3.771,7.764,5.586,11.5c0.153-0.021,0.309-0.045,0.463-0.068
	c1.82-3.821,3.641-7.644,5.461-11.465c0.547,2.575,0.896,5.088,1.209,7.604c0.145,1.167,0.221,2.343,0.346,3.703h5.363
	c-2.381-0.711-2.381-0.711-2.752-3.176c-0.674-4.496-1.344-8.992-2.031-13.486c-0.057-0.371-0.229-0.725-0.348-1.085
	c-0.111-0.002-0.222-0.005-0.332-0.007c-2.106,4.426-4.213,8.852-6.435,13.519c-2.3-4.73-4.453-9.163-6.607-13.595
	c-0.126,0.044-0.252,0.089-0.377,0.134c-0.09,0.248-0.221,0.489-0.26,0.744c-0.709,4.649-1.412,9.301-2.106,13.952
	c-0.188,1.269-0.06,2.714-1.837,3.044h5.189c0.074-0.104,0.147-0.207,0.221-0.31c-1.514,0.096-2.213-0.398-1.982-1.883
	C235.534,70.053,235.879,67.094,236.305,63.868"/>
<path fill="#09AEDB" d="M167.01,62.794c0.088-0.045,0.175-0.09,0.262-0.135c4.279,4.153,8.559,8.309,12.885,12.508
	c0.057-0.688,0.162-1.451,0.174-2.214c0.053-3.888,0.038-7.774,0.146-11.659c0.037-1.291-0.412-2.992,1.705-3.265h-5.666
	c1.008,0.347,2.066,0.404,2.09,1.854c0.052,3.375,0.152,6.748,0.227,10.123c0.002,0.16-0.08,0.324-0.156,0.615
	c-4.293-4.421-8.479-8.73-12.903-13.289c-0.083,0.844-0.16,1.297-0.168,1.752c-0.081,4.473-0.149,8.944-0.224,13.42
	c-0.033,1.926-0.037,1.924-1.771,2.5c-0.032,0.01-0.025,0.139-0.035,0.201h5.866c-0.097-0.23-0.222-0.347-0.345-0.345
	c-1.188,0.023-1.682-0.585-1.717-1.733C167.275,69.682,167.135,66.238,167.01,62.794"/>
<path fill="#09AEDB" d="M314.183,70.635c-4.304-4.433-8.49-8.744-12.91-13.297c-0.086,0.828-0.166,1.28-0.174,1.732
	c-0.08,4.475-0.148,8.947-0.225,13.421c-0.031,1.964-0.036,1.964-1.764,2.505c-0.033,0.01-0.03,0.135-0.047,0.215h6.221
	c-0.44-0.23-0.563-0.353-0.684-0.349c-1.283,0.042-1.713-0.68-1.74-1.841c-0.055-2.392-0.135-4.783-0.215-7.175
	c-0.035-1.026-0.093-2.053-0.14-3.079c0.089-0.044,0.179-0.085,0.269-0.128c4.246,4.188,8.492,8.375,12.861,12.682
	c0.068-0.836,0.172-1.596,0.188-2.356c0.084-4.238,0.178-8.478,0.195-12.715c0.006-1.209,0.399-1.934,1.633-2.107
	c0.015-0.002,0.012-0.135,0.01-0.117h-5.669c2.043,0.632,2.041,0.632,2.118,2.788c0.011,0.274,0.067,0.546,0.068,0.819
	C314.185,64.565,314.183,67.497,314.183,70.635"/>
<path fill="#09AEDB" d="M209.95,66.708c-0.008,0.063-0.016,0.129-0.024,0.191c0.125,0.052,0.244,0.129,0.373,0.149
	c1.5,0.234,1.674,0.428,1.694,1.969c0.015,1.1,0.013,2.197,0.013,3.296c-0.002,1.513-0.211,1.727-1.756,1.813
	c-4.283,0.235-7.63-2.266-8.297-6.51c-0.611-3.894,0.215-7.834,5.352-8.525c3.158-0.426,5.816,0.785,6.971,3.375
	c0.016,0.035,0.137,0.026,0.27,0.049c0.064-0.58,0.153-1.152,0.188-1.727c0.132-2.195,0.131-2.227-2.013-2.586
	c-2.887-0.484-5.776-0.64-8.59,0.383c-3.273,1.188-5.099,3.613-5.467,7.014c-0.341,3.16,0.543,5.979,3.346,7.785
	c3.757,2.42,7.838,2.428,11.977,1.158c0.375-0.115,0.768-0.752,0.828-1.191c0.127-0.924-0.01-1.881,0.051-2.818
	c0.096-1.463-0.637-3.309,1.637-3.823L209.95,66.708L209.95,66.708z"/>
<path fill="#09AEDB" d="M109.811,75.034c0.29,0.172,0.354,0.241,0.418,0.241c4.003,0.015,8.006,0.029,12.009,0.015
	c0.269,0,0.704-0.177,0.774-0.373c0.412-1.152,0.75-2.332,0.447-3.826c-0.238,0.35-0.373,0.463-0.395,0.596
	c-0.255,1.603-1.362,2.285-2.807,2.353c-2.131,0.098-4.269,0.024-6.574,0.024c3.39-5.407,6.697-10.684,10.15-16.193
	c-4.354,0-8.313-0.007-12.272,0.017c-0.218,0-0.595,0.197-0.626,0.356c-0.229,1.154-0.387,2.323-0.566,3.488
	c0.118,0.031,0.236,0.062,0.354,0.093c0.138-0.337,0.197-0.742,0.427-0.992c0.506-0.554,1.051-1.39,1.662-1.467
	c2.222-0.281,4.478-0.299,7.024-0.433C116.36,64.516,113.086,69.774,109.811,75.034"/>
<path fill="#09AEDB" d="M146.551,57.995h-6.323c1.368,0.151,1.692,1.023,1.688,2.18c-0.017,3.961,0.004,7.92-0.058,11.879
	c-0.019,1.254,0.468,2.887-1.624,3.094h6.889c-2.285-0.652-2.291-0.652-2.296-3.124c-0.007-3.806-0.005-7.612-0.001-11.419
	C144.828,58.669,144.842,58.658,146.551,57.995"/>
<path fill="#0272AA" d="M146.498,16.175c0.318-0.045,0.637-0.131,0.955-0.131c5.328,0.004,10.658-0.047,15.984,0.063
	c1.904,0.04,3.846,0.295,5.691,0.765c7.963,2.018,11.338,8.865,10.709,15.93c-0.713,8.006-6.502,14.283-16.555,14.549
	c-2.97,0.078-5.949-0.281-8.924-0.342c-2.035-0.043-4.072,0.097-6.109,0.129c-0.385,0.007-0.771-0.107-1.156-0.166
	c-0.014-0.127-0.025-0.254-0.037-0.383c0.447-0.121,0.896-0.355,1.339-0.342c1.296,0.041,1.759-0.756,1.856-1.818
	c0.152-1.637,0.264-3.284,0.269-4.928c0.019-6.435-0.003-12.869-0.024-19.305c-0.008-2.66-0.533-3.201-3.181-3.422
	c-0.278-0.021-0.552-0.128-0.827-0.193C146.492,16.444,146.496,16.31,146.498,16.175 M155.721,29.484c0.057,0,0.113,0,0.17,0
	c0,4.041-0.039,8.083,0.016,12.123c0.028,2.221,0.842,3.173,3.067,3.376c1.899,0.175,3.854,0.238,5.735-0.021
	c3.463-0.479,6.662-1.793,8.162-5.213c2.129-4.857,2.266-9.875-0.252-14.652c-3.221-6.113-10.838-7.436-15.912-6.74
	c-0.889,0.122-0.989,0.75-0.988,1.47C155.723,23.044,155.721,26.264,155.721,29.484"/>
<path fill="#0272AA" d="M125.494,15.266c2.292,0.453,4.678,0.642,6.857,1.412c5.276,1.865,8.483,5.643,9.244,11.271
	c0.776,5.756-0.465,10.918-4.787,15.07c-2.582,2.481-5.705,3.864-9.237,4.231c-5.209,0.539-10.181-0.115-14.146-3.916
	c-4.93-4.721-6.184-10.59-4.213-16.955c1.898-6.127,6.33-9.639,12.706-10.588c1.159-0.172,2.339-0.209,3.509-0.311
	C125.45,15.411,125.473,15.339,125.494,15.266 M136.074,33.769c-0.061-0.005-0.12-0.01-0.18-0.015c0-1.327,0.111-2.666-0.021-3.979
	c-0.355-3.533-1.611-6.704-4.279-9.154c-3.093-2.845-6.762-3.563-10.717-2.416c-3.597,1.041-5.459,3.771-6.246,7.289
	c-0.802,3.582-0.781,7.178,0.342,10.682c1.141,3.566,3.203,6.516,6.744,8.031c6.119,2.621,12.094,0.319,13.723-6.623
	C135.733,36.331,135.866,35.042,136.074,33.769"/>
<path fill="#0272AA" d="M201.255,15.295c2.185,0.396,4.446,0.558,6.54,1.239c5.462,1.776,8.833,5.534,9.656,11.312
	c0.826,5.796-0.42,10.997-4.774,15.183c-2.583,2.483-5.708,3.862-9.241,4.227c-4.767,0.487-9.355-0.015-13.25-3.161
	c-4.472-3.611-6.175-8.396-5.854-14.053C184.731,23.044,190.365,15.263,201.255,15.295 M190.001,30.116
	c-0.017,4.959,1.296,9.39,5.26,12.674c6.114,5.067,14.323,2.418,16.019-5.297c0.562-2.552,0.629-5.298,0.414-7.912
	c-0.342-4.187-2.127-7.773-5.766-10.166c-5.232-3.442-12.248-1.651-14.648,3.703C190.281,25.343,190.011,27.706,190.001,30.116"/>
<path fill="#0272AA" d="M306.931,15.266c2.293,0.451,4.68,0.638,6.857,1.408c5.275,1.865,8.486,5.639,9.249,11.268
	c0.778,5.757-0.461,10.918-4.778,15.073c-2.582,2.483-5.703,3.868-9.236,4.235c-5.207,0.541-10.181-0.111-14.146-3.908
	c-4.934-4.721-6.188-10.588-4.221-16.953c1.895-6.127,6.324-9.643,12.701-10.596c1.158-0.172,2.338-0.209,3.508-0.311
	C306.885,15.411,306.908,15.339,306.931,15.266 M317.663,31.113c-0.079-0.009-0.157-0.019-0.236-0.027
	c-0.029-0.431-0.037-0.861-0.091-1.289c-0.519-4.271-2.138-7.949-5.854-10.387c-6.185-4.06-13.707-1.107-15.375,6.068
	c-0.403,1.733-0.519,3.569-0.506,5.358c0.03,4.711,1.493,8.871,5.239,11.965c6.121,5.056,14.248,2.388,16.043-5.316
	C317.365,35.413,317.414,33.24,317.663,31.113"/>
<path fill="#0272AA" d="M368.774,47.405c-7.041-0.023-12.479-2.836-15.221-9.516c-4.156-10.131,1.903-22.013,14.454-22.283
	c2.287-0.051,4.663,0.099,6.863,0.67c5.983,1.559,9.717,5.412,10.603,11.652c0.814,5.752-0.436,10.928-4.763,15.074
	C377.383,46.19,373.317,47.444,368.774,47.405 M358.013,30.19c-0.002,4.961,1.336,9.384,5.316,12.646
	c6.095,4.996,14.146,2.32,16.02-5.285c0.652-2.656,0.742-5.357,0.397-8.046c-0.534-4.171-2.211-7.76-5.866-10.131
	c-5.266-3.413-12.232-1.576-14.613,3.812C358.278,25.419,358.024,27.782,358.013,30.19"/>
<path fill="#0272AA" d="M228.632,24.854c0.125,5.607,0.233,11.217,0.39,16.824c0.026,0.971,0.22,1.943,0.399,2.903
	c0.197,1.058,0.829,1.619,1.962,1.644c0.619,0.015,1.235,0.209,1.852,0.324c-0.018,0.137-0.034,0.276-0.053,0.414h-11.221
	c-0.021-0.119-0.043-0.24-0.064-0.359c0.558-0.121,1.109-0.283,1.674-0.354c1.39-0.18,1.794-0.492,1.881-1.898
	c0.137-2.189,0.208-4.387,0.245-6.582c0.114-6.787,0.2-13.573,0.297-20.358c0.001-0.04-0.007-0.081,0.002-0.118
	c0.137-0.552,0.276-1.104,0.415-1.653c0.472,0.287,1.031,0.49,1.404,0.873c7.012,7.196,14,14.414,20.995,21.625
	c0.293,0.301,0.606,0.582,0.92,0.879c0-2.388,0.028-4.715-0.008-7.039c-0.063-3.883-0.184-7.764-0.246-11.646
	c-0.052-3.061-1.029-3.594-3.332-3.559c-0.275,0.004-0.555-0.125-0.83-0.19c0.011-0.111,0.021-0.226,0.033-0.336h10.905
	c0.015,0.106,0.029,0.217,0.043,0.325c-0.304,0.072-0.604,0.173-0.912,0.212c-1.774,0.221-2.354,0.646-2.444,2.386
	c-0.17,3.211-0.188,6.429-0.254,9.646c-0.121,5.765-0.227,11.529-0.369,17.293c-0.01,0.418-0.278,0.828-0.426,1.242
	c-0.412-0.189-0.912-0.291-1.223-0.588c-2.352-2.256-4.7-4.513-6.979-6.841c-4.888-4.989-9.729-10.024-14.594-15.036
	c-0.078-0.082-0.189-0.134-0.287-0.199c-0.058-0.035-0.115-0.069-0.174-0.105C228.633,24.669,228.632,24.76,228.632,24.854"/>
<path fill="#0272AA" d="M418.41,24.784c-0.104-0.349-0.244-0.688-0.301-1.043c-0.325-2.029-1.495-3.418-3.287-4.313
	c-4.071-2.034-8.276-2.312-12.535-0.728c-2.551,0.946-4.44,2.756-5.299,5.346c-1.872,5.642-1.55,11.108,2.132,15.981
	c3.458,4.576,8.285,5.761,13.749,4.957c1.005-0.146,1.434-0.767,1.416-1.815c-0.045-2.592,0.001-5.185-0.021-7.774
	c-0.016-2.034-0.688-2.698-2.763-2.825c-0.366-0.022-0.729-0.079-1.196-0.132c0.656-0.752,11.41-0.857,12.562-0.129
	c-0.407,0.12-0.656,0.225-0.916,0.266c-1.931,0.305-2.367,0.797-2.376,2.797c-0.013,2.67-0.001,5.34-0.004,8.01
	c-0.002,1.99-0.086,2.277-1.954,2.808c-6.788,1.932-13.521,1.977-19.891-1.418c-5.789-3.086-7.961-8.304-7.414-14.593
	c0.715-8.227,6.003-13.404,14.225-14.393c4.094-0.492,8.143-0.197,12.171,0.59c0.23,0.045,0.462,0.103,0.695,0.123
	c2.167,0.188,2.021-0.119,1.884,2.303c-0.089,1.566-0.087,3.136-0.164,4.703c-0.022,0.436-0.183,0.865-0.278,1.298L418.41,24.784z"
	/>
<path fill="#0272AA" d="M473.414,47.121c-3.578,0.021-7.155,0.093-10.857-0.229c1.522-0.866,0.818-1.86,0.447-2.844
	c-0.844-2.235-1.685-4.474-2.479-6.728c-0.262-0.739-0.666-1.044-1.466-1.03c-2.51,0.039-5.021-0.023-7.532,0.051
	c-0.423,0.013-1.059,0.41-1.208,0.785c-0.874,2.18-1.688,4.387-2.411,6.621c-0.653,2.014-0.229,2.553,1.85,2.69
	c0.222,0.015,0.439,0.076,0.748,0.359c-0.217,0.115-0.435,0.328-0.652,0.328c-3.049,0.021-6.099,0.016-9.326-0.252
	c0.214-0.181,0.419-0.504,0.646-0.52c2.122-0.138,2.997-1.614,3.681-3.323c2.255-5.637,4.513-11.271,6.768-16.905
	c1.19-2.982,2.371-5.969,3.567-8.949c0.189-0.469,0.406-0.936,0.665-1.371c0.402-0.676,0.881-0.625,1.241,0.021
	c0.342,0.611,0.612,1.268,0.875,1.922c3.166,7.844,6.318,15.695,9.495,23.536c0.381,0.939,0.842,1.857,1.355,2.732
	c0.813,1.39,1.901,2.395,3.681,2.283c0.311-0.021,0.632,0.133,0.947,0.207C473.435,46.714,473.425,46.919,473.414,47.121
	 M451.415,34.102h7.906c-1.294-3.508-2.537-6.879-3.903-10.58C454.018,27.221,452.753,30.566,451.415,34.102"/>
<path fill="#0272AA" d="M270.617,18.447c-2.785,0.159-5.517,0.26-8.234,0.498c-1.153,0.104-1.815,0.977-2.223,2.041
	c-0.104,0.272-0.408,0.471-0.619,0.701c-0.123-0.302-0.388-0.627-0.341-0.9c0.257-1.545,0.558-3.085,0.927-4.605
	c0.058-0.237,0.554-0.547,0.822-0.523c1.979,0.163,3.95,0.56,5.928,0.587c5.379,0.076,10.761,0.021,16.14-0.015
	c1.207-0.008,2.412-0.149,3.897-0.248c-0.103,2.154-0.197,4.148-0.293,6.142l-0.478,0.038c-0.115-0.343-0.315-0.682-0.33-1.026
	c-0.043-1.131-0.729-1.754-1.69-2c-1.054-0.269-2.149-0.428-3.235-0.48c-1.603-0.077-3.209-0.02-4.988-0.02v1.254
	c0,6.637-0.01,13.273,0.008,19.91c0.004,1.254,0.102,2.506,0.176,3.758c0.114,1.928,0.6,2.451,2.51,2.742
	c0.59,0.09,1.184,0.17,1.891,0.27c-0.668,0.65-12.229,0.753-13.379,0.122c0.631-0.183,1.078-0.429,1.521-0.42
	c1.307,0.026,1.727-0.785,1.818-1.853c0.135-1.562,0.248-3.129,0.255-4.695c0.026-6.715,0.013-13.43,0.009-20.146
	C270.707,19.271,270.66,18.968,270.617,18.447"/>
<path fill="#0272AA" d="M328.2,16.229h12.835c0.013,0.131,0.024,0.263,0.038,0.394c-0.656,0.1-1.309,0.233-1.969,0.288
	c-1.088,0.09-1.613,0.732-1.748,1.73c-0.109,0.813-0.183,1.639-0.185,2.459c-0.015,6.043-0.03,12.086,0.011,18.127
	c0.008,1.363,0.127,2.752,0.428,4.074c0.128,0.562,0.771,1.266,1.32,1.426c2.406,0.703,4.868,0.724,7.311,0.082
	c1.542-0.406,2.111-1.615,2.43-3.021c0.087-0.387,0.219-0.762,0.333-1.151c0.236,0.084,0.36,0.098,0.369,0.137
	c0.485,2.094,0.079,4.106-0.728,6.021c-0.146,0.348-1.004,0.572-1.525,0.561c-4.153-0.096-8.305-0.299-12.456-0.393
	c-1.683-0.037-3.366,0.127-5.05,0.176c-0.344,0.008-0.688-0.096-1.03-0.146c-0.01-0.129-0.021-0.258-0.028-0.385
	c0.404-0.125,0.814-0.369,1.215-0.354c1.343,0.05,1.846-0.754,1.934-1.877c0.145-1.835,0.256-3.677,0.262-5.518
	c0.021-6.236-0.008-12.477-0.021-18.715c-0.006-2.69-0.396-3.115-3.047-3.377c-0.244-0.023-0.479-0.133-0.719-0.201
	C328.185,16.453,328.192,16.343,328.2,16.229"/>
<path fill="#0272AA" d="M427.295,46.571c0.463-0.109,0.927-0.316,1.389-0.313c1.224,0.011,1.7-0.698,1.771-1.754
	c0.122-1.837,0.238-3.679,0.245-5.518c0.019-6.276-0.01-12.555-0.023-18.832c-0.005-2.518-0.288-2.844-2.743-3.288
	c-0.272-0.052-0.526-0.212-0.791-0.32c0.02-0.105,0.035-0.21,0.054-0.314h12.024c0.021,0.097,0.043,0.191,0.064,0.287
	c-0.351,0.102-0.692,0.237-1.049,0.295c-1.661,0.273-2.061,0.619-2.245,2.32c-0.123,1.126-0.122,2.27-0.122,3.405
	c0.001,6.396,0.017,12.79,0.031,19.185c0.001,0.353,0.021,0.705,0.057,1.055c0.316,3.039,0.319,3.033,3.357,3.641
	c0.197,0.039,0.356,0.277,0.533,0.424c-0.177,0.101-0.343,0.238-0.533,0.291c-0.183,0.05-0.39,0.013-0.586,0.013
	c-3.404,0-6.812,0.004-10.218-0.004c-0.397-0.002-0.795-0.072-1.192-0.11C427.311,46.878,427.303,46.725,427.295,46.571"/>
<path fill="#09AEDB" d="M236.305,63.868c-0.427,3.227-0.771,6.186-1.229,9.127c-0.23,1.483,0.469,1.979,1.982,1.882
	c-0.073,0.103-0.146,0.206-0.221,0.31h-5.189c1.777-0.33,1.648-1.773,1.838-3.043c0.693-4.65,1.396-9.303,2.105-13.953
	c0.039-0.254,0.17-0.495,0.26-0.742c0.125-0.046,0.25-0.09,0.377-0.135c2.153,4.433,4.308,8.863,6.607,13.595
	c2.223-4.666,4.327-9.093,6.436-13.519c0.108,0.002,0.219,0.004,0.33,0.006c0.118,0.363,0.293,0.716,0.349,1.086
	c0.688,4.494,1.358,8.99,2.032,13.486c0.369,2.465,0.371,2.465,2.75,3.176h-5.362c-0.125-1.36-0.201-2.537-0.347-3.703
	c-0.313-2.518-0.662-5.029-1.207-7.604c-1.82,3.822-3.643,7.645-5.463,11.467c-0.153,0.021-0.309,0.045-0.461,0.066
	C240.075,71.632,238.26,67.893,236.305,63.868"/>
<path fill="#09AEDB" d="M167.01,62.794c0.126,3.445,0.264,6.889,0.369,10.334c0.036,1.148,0.527,1.758,1.717,1.734
	c0.123-0.003,0.249,0.112,0.346,0.343h-5.867c0.01-0.063,0.002-0.19,0.035-0.2c1.734-0.576,1.739-0.574,1.771-2.5
	c0.075-4.474,0.143-8.947,0.223-13.421c0.008-0.454,0.086-0.907,0.17-1.75c4.424,4.558,8.609,8.867,12.901,13.288
	c0.077-0.291,0.16-0.454,0.156-0.615c-0.072-3.375-0.175-6.748-0.226-10.123c-0.022-1.449-1.082-1.508-2.091-1.854h5.667
	c-2.117,0.271-1.669,1.973-1.705,3.264c-0.109,3.886-0.093,7.771-0.147,11.66c-0.011,0.765-0.117,1.525-0.173,2.214
	c-4.326-4.199-8.605-8.354-12.885-12.508C167.184,62.704,167.097,62.749,167.01,62.794"/>
<path fill="#09AEDB" d="M314.183,70.635c0-3.138,0.002-6.069-0.002-9.001c-0.002-0.273-0.06-0.546-0.068-0.818
	c-0.078-2.157-0.076-2.157-2.119-2.789h5.669c0.002-0.019,0.005,0.115-0.011,0.117c-1.231,0.174-1.627,0.898-1.631,2.108
	c-0.02,4.237-0.112,8.476-0.196,12.713c-0.015,0.763-0.118,1.521-0.187,2.358c-4.369-4.308-8.615-8.494-12.861-12.683
	c-0.09,0.043-0.18,0.086-0.271,0.129c0.048,1.025,0.104,2.051,0.14,3.078c0.08,2.392,0.16,4.782,0.215,7.174
	c0.027,1.162,0.459,1.886,1.742,1.843c0.119-0.005,0.242,0.116,0.683,0.347h-6.22c0.016-0.078,0.013-0.204,0.047-0.215
	c1.727-0.54,1.73-0.539,1.764-2.505c0.074-4.474,0.143-8.945,0.225-13.418c0.008-0.455,0.088-0.905,0.174-1.734
	C305.692,61.891,309.879,66.204,314.183,70.635"/>
<path fill="#09AEDB" d="M209.951,66.708h6.552c-2.274,0.516-1.542,2.36-1.638,3.824c-0.061,0.938,0.076,1.895-0.051,2.817
	c-0.061,0.439-0.453,1.077-0.828,1.192c-4.139,1.269-8.22,1.261-11.978-1.16c-2.801-1.806-3.685-4.623-3.344-7.784
	c0.366-3.399,2.192-5.824,5.466-7.013c2.813-1.022,5.704-0.867,8.589-0.384c2.144,0.36,2.146,0.392,2.013,2.584
	c-0.035,0.575-0.123,1.147-0.188,1.728c-0.133-0.021-0.253-0.012-0.27-0.049c-1.153-2.589-3.813-3.799-6.972-3.374
	c-5.137,0.691-5.963,4.632-5.351,8.525c0.666,4.245,4.014,6.745,8.297,6.509c1.545-0.085,1.755-0.298,1.756-1.813
	c0.001-1.098,0.002-2.196-0.012-3.295c-0.021-1.541-0.196-1.733-1.695-1.969c-0.129-0.021-0.249-0.1-0.373-0.15
	C209.934,66.836,209.944,66.772,209.951,66.708"/>
<path fill="#09AEDB" d="M109.811,75.034c3.275-5.261,6.549-10.519,10.025-16.103c-2.547,0.133-4.803,0.15-7.025,0.433
	c-0.609,0.077-1.156,0.913-1.66,1.465c-0.23,0.252-0.291,0.657-0.426,0.994c-0.119-0.03-0.238-0.063-0.355-0.093
	c0.18-1.164,0.339-2.334,0.566-3.487c0.031-0.16,0.407-0.356,0.625-0.358c3.959-0.021,7.92-0.015,12.273-0.015
	c-3.454,5.51-6.762,10.784-10.15,16.192c2.305,0,4.444,0.072,6.574-0.024c1.445-0.065,2.551-0.75,2.807-2.354
	c0.021-0.132,0.158-0.245,0.394-0.595c0.304,1.494-0.035,2.675-0.446,3.826c-0.07,0.196-0.507,0.373-0.775,0.373
	c-4.002,0.016-8.006,0-12.008-0.015C110.164,75.276,110.1,75.206,109.811,75.034"/>
<path fill="#09AEDB" d="M276.073,57.067c0.412,0.824,0.701,1.312,0.91,1.832c1.715,4.297,3.412,8.602,5.119,12.901
	c0.086,0.22,0.187,0.433,0.289,0.644c0.621,1.277,1.121,2.697,3.113,2.386c-0.047,0.108-0.095,0.217-0.143,0.325h-5.252
	c-0.455-1.446-0.971-2.817-1.31-4.23c-0.325-1.356-0.975-1.966-2.432-1.767c-1.154,0.157-2.658-0.325-3.421,0.252
	c-0.823,0.62-0.994,2.135-1.398,3.276c-0.636,1.797-0.617,1.803,1.109,2.483h-5.902c0.338-0.192,0.456-0.319,0.57-0.315
	c1.281,0.033,1.886-0.754,2.305-1.819c1.835-4.673,3.678-9.341,5.529-14.005C275.385,58.469,275.669,57.934,276.073,57.067
	 M273.276,67.911h4.423c-0.735-1.988-1.415-3.826-2.187-5.909C274.711,64.116,274.01,65.969,273.276,67.911"/>
<path fill="#09AEDB" d="M146.551,57.995c-1.709,0.663-1.723,0.674-1.725,2.608c-0.004,3.807-0.006,7.613,0.001,11.419
	c0.005,2.472,0.011,2.472,2.296,3.124h-6.889c2.092-0.207,1.605-1.84,1.624-3.094c0.062-3.959,0.041-7.918,0.058-11.879
	c0.004-1.155-0.32-2.027-1.688-2.18L146.551,57.995L146.551,57.995z"/>
<path fill="#FEFEFE" d="M55.082,6.595c1.174,0.244,2.355,0.453,3.519,0.736c9.36,2.291,17.042,7.24,22.917,14.854
	c5.18,6.714,8.033,14.396,8.354,22.872c0.129,3.38-0.019,6.881-0.763,10.163c-3.453,15.242-12.678,25.512-27.435,30.695
	c-2.385,0.838-4.932,1.207-7.403,1.793c-0.198,0.096-0.397,0.191-0.597,0.289c1.377,0.088,2.736,0.051,4.091-0.045
	c9.987-0.707,18.638-4.537,25.728-11.558c9.414-9.317,13.486-20.711,12.096-33.893c-1.22-11.547-6.623-20.891-15.758-28.008
	C72.183,8.535,63.39,5.879,53.733,5.961h-2.658c-0.009,0.09-0.019,0.181-0.029,0.271C52.392,6.354,53.737,6.475,55.082,6.595"/>
<path fill="#FEFEFE" d="M41.428,87.697c2.631,0.193,5.262,0.388,7.893,0.579c0.029-0.119,0.057-0.238,0.086-0.357
	c-10.353-0.83-19.3-4.777-26.582-12.144c-7.295-7.38-11.242-16.354-11.752-26.719c-0.148-3.026,0.112-6.129,0.641-9.116
	c0.519-2.943,1.365-5.892,2.525-8.646c1.176-2.795,2.696-5.506,4.459-7.977c1.739-2.437,3.799-4.716,6.034-6.708
	c2.267-2.018,4.794-3.831,7.445-5.307c2.614-1.453,5.464-2.58,8.329-3.463c2.843-0.877,5.832-1.271,8.787-1.881
	c-1.004,0-1.986-0.027-2.967,0.006c-0.975,0.033-1.947,0.127-2.92,0.193c-0.628,0.02-1.26-0.011-1.881,0.063
	c-11.785,1.399-21.38,6.827-28.484,16.249C6.791,30.758,4.142,40.25,5.068,50.68c0.52,5.841,2.192,11.279,5.023,16.42
	c2.636,4.787,6.156,8.816,10.365,12.195c4.783,3.84,10.252,6.441,16.256,7.805C38.25,87.448,39.855,87.506,41.428,87.697"/>
<path fill="#FEFEFE" d="M35.095,75.689c0.071,0.025,0.146,0.052,0.217,0.076c0.379-0.717,0.792-1.418,1.13-2.152
	c2.631-5.721,1.918-11.26-1.156-16.542c-2.187-3.759-4.699-7.328-6.92-11.07c-2.621-4.416-4.139-9.104-3.015-14.359
	c1.017-4.762,4.079-7.403,8.931-7.645c4.178-0.209,7.701,1.379,11.065,3.645c3.312,2.229,6.54,4.688,10.114,6.4
	c7.746,3.713,17.039-1.029,18.759-9.262c0.446-2.137-0.634-4.109-2.742-4.656c-1.077-0.279-2.255-0.334-3.373-0.266
	c-2.929,0.186-6.25,3.098-6.8,5.908c0.949-0.728,1.811-1.464,2.744-2.089c1.478-0.988,3.042-1.84,4.902-1.729
	c2.664,0.156,3.689,2.161,2.168,4.326c-1.765,2.512-4.15,4.296-7.076,5.2c-1.078,0.333-2.334,0.346-3.467,0.195
	c-3.593-0.479-6.436-2.549-9.26-4.623c-3.002-2.201-5.921-4.537-9.047-6.547c-3.988-2.563-8.209-2.563-12.402-0.334
	c-3.054,1.623-5.47,3.928-7.248,6.887c-1.412,2.355-1.988,4.959-1.863,7.664c0.17,3.697,1.189,7.238,3.078,10.395
	c2.757,4.605,5.74,9.076,8.699,13.56c2.203,3.34,3.5,6.92,3.223,10.957C35.615,71.654,35.32,73.67,35.095,75.689"/>
<path fill="#FEFEFE" d="M73.369,30.166c1.727,3.854,0.25,7.187-1.388,10.488c-1.044,2.106-2.071,4.223-3.166,6.305
	c-2.211,4.205-2.348,8.523-0.85,12.971c1.485,4.414,4.12,8.164,6.821,11.875c0.191,0.264,0.418,0.5,0.629,0.75
	c0.08-0.473-0.015-0.842-0.129-1.205c-0.662-2.092-1.36-4.17-1.985-6.271c-1.688-5.679-1.782-11.255,0.35-16.935
	c1.353-3.604,2.106-7.445,2.968-11.219C77.268,34.082,75.91,31.386,73.369,30.166"/>
<path fill="#FEFEFE" d="M47.156,69.932c0.867-0.794,1.864-1.726,2.883-2.634c3.867-3.445,7.269-3.764,11.479-0.772
	c2.099,1.491,3.951,3.336,5.856,5.085c1.471,1.351,2.851,2.802,4.449,4.384c-0.537-2.139-3.939-8.199-5.717-10.391
	c-1.605-1.98-3.508-3.588-5.818-4.685c-3.404-1.615-6.881-1.004-9.492,1.674C48.732,64.713,47.734,67.356,47.156,69.932"/>
<path fill="#0272AA" d="M35.095,75.689c0.225-2.02,0.521-4.035,0.661-6.061c0.276-4.037-1.019-7.617-3.224-10.957
	c-2.958-4.482-5.942-8.953-8.698-13.56c-1.889-3.155-2.908-6.696-3.078-10.395c-0.125-2.704,0.451-5.309,1.865-7.663
	c1.776-2.959,4.192-5.267,7.246-6.888c4.193-2.229,8.413-2.229,12.402,0.334c3.126,2.011,6.045,4.346,9.047,6.547
	c2.824,2.074,5.668,4.144,9.26,4.623c1.133,0.149,2.389,0.138,3.467-0.195c2.926-0.904,5.312-2.688,7.076-5.2
	c1.521-2.166,0.495-4.17-2.168-4.326c-1.861-0.111-3.425,0.739-4.902,1.729c-0.935,0.626-1.795,1.361-2.744,2.089
	c0.551-2.812,3.871-5.724,6.8-5.908c1.118-0.068,2.296-0.015,3.373,0.266c2.108,0.547,3.188,2.521,2.742,4.658
	c-1.72,8.229-11.013,12.973-18.759,9.26c-3.574-1.713-6.803-4.172-10.114-6.4c-3.364-2.266-6.888-3.854-11.065-3.645
	c-4.852,0.241-7.912,2.883-8.931,7.645c-1.124,5.257,0.394,9.943,3.015,14.359c2.221,3.742,4.733,7.313,6.922,11.072
	c3.072,5.28,3.784,10.819,1.154,16.54c-0.338,0.735-0.751,1.437-1.13,2.152C35.24,75.74,35.166,75.715,35.095,75.689"/>
<path fill="#0272AA" d="M43.406,6.158c0.974-0.066,1.947-0.159,2.921-0.193c0.98-0.033,1.963-0.007,2.967-0.007
	c-2.953,0.609-5.944,1.005-8.787,1.882c-2.865,0.883-5.713,2.01-8.328,3.464c-2.652,1.474-5.18,3.287-7.446,5.306
	c-2.235,1.992-4.294,4.271-6.034,6.709c-1.762,2.468-3.283,5.182-4.459,7.977c-1.158,2.754-2.007,5.702-2.525,8.646
	c-0.527,2.988-0.789,6.091-0.641,9.117c0.512,10.363,4.456,19.338,11.752,26.719c7.282,7.365,16.229,11.313,26.582,12.144
	c-0.029,0.119-0.057,0.238-0.085,0.356c-2.631-0.191-5.262-0.385-7.894-0.577c-0.242-0.099-0.477-0.239-0.728-0.285
	c-7.354-1.343-13.858-4.535-19.437-9.435c-4.516-3.967-8.088-8.716-10.487-14.302C7.616,56.324,6.5,48.716,7.742,40.8
	c1.318-8.396,4.84-15.739,10.715-21.914c5.488-5.767,12.074-9.688,19.811-11.625C39.965,6.836,41.693,6.523,43.406,6.158"/>
<path fill="#09AEDB" d="M53.733,5.963c9.656-0.082,18.448,2.573,26.098,8.533c9.135,7.118,14.539,16.46,15.758,28.008
	c1.391,13.182-2.681,24.574-12.095,33.893c-7.091,7.02-15.741,10.851-25.729,11.558c-1.354,0.096-2.714,0.133-4.092,0.044
	c0.199-0.097,0.399-0.192,0.599-0.288c0.705-0.021,1.42,0.03,2.112-0.068c10.7-1.53,19.677-6.285,26.49-14.709
	c8.636-10.676,11.281-22.866,7.948-36.139c-2.89-11.508-9.861-20.074-20.244-25.784c-4.822-2.652-10.01-4.254-15.536-4.635
	C54.606,6.238,54.169,6.099,53.733,5.963"/>
<path fill="#09AEDB" d="M43.406,6.158c-1.713,0.364-3.44,0.678-5.138,1.103c-7.736,1.938-14.322,5.858-19.811,11.625
	C12.582,25.06,9.061,32.404,7.742,40.8C6.5,48.716,7.616,56.324,10.777,63.677c2.399,5.586,5.972,10.335,10.487,14.302
	c5.578,4.898,12.082,8.092,19.437,9.435c0.251,0.046,0.485,0.188,0.728,0.285c-1.573-0.191-3.178-0.248-4.715-0.599
	c-6.004-1.363-11.474-3.965-16.256-7.806c-4.209-3.379-7.729-7.406-10.365-12.194C7.26,61.959,5.588,56.521,5.069,50.681
	c-0.927-10.433,1.723-19.924,7.973-28.214c7.104-9.421,16.7-14.851,28.484-16.245C42.147,6.148,42.779,6.177,43.406,6.158"/>
<path fill="#0272AA" d="M55.041,6.375c5.527,0.38,10.715,1.981,15.537,4.635c10.383,5.711,17.354,14.277,20.243,25.783
	c3.334,13.271,0.689,25.463-7.946,36.141c-6.814,8.422-15.791,13.176-26.49,14.707c-0.693,0.098-1.408,0.049-2.113,0.068
	c2.471-0.586,5.018-0.956,7.402-1.793c14.757-5.185,23.981-15.453,27.435-30.695c0.744-3.281,0.892-6.783,0.764-10.162
	c-0.321-8.476-3.175-16.16-8.354-22.873C75.643,14.574,67.962,9.623,58.601,7.333c-1.163-0.285-2.345-0.494-3.519-0.737
	C55.069,6.521,55.055,6.449,55.041,6.375"/>
<path fill="#09AEDB" d="M73.37,30.166c2.54,1.221,3.897,3.917,3.249,6.761c-0.862,3.771-1.614,7.612-2.967,11.218
	c-2.133,5.679-2.039,11.256-0.352,16.933c0.625,2.103,1.325,4.183,1.986,6.271c0.115,0.363,0.21,0.733,0.128,1.206
	c-0.21-0.249-0.437-0.486-0.628-0.749c-2.702-3.713-5.336-7.462-6.822-11.876c-1.497-4.445-1.359-8.766,0.852-12.972
	c1.094-2.08,2.121-4.196,3.164-6.302C73.617,37.351,75.096,34.021,73.37,30.166"/>
<path fill="#09AEDB" d="M47.156,69.933c0.578-2.578,1.575-5.22,3.641-7.338c2.61-2.68,6.088-3.289,9.492-1.676
	c2.311,1.096,4.213,2.703,5.819,4.684c1.776,2.192,5.179,8.252,5.715,10.392c-1.598-1.582-2.978-3.032-4.448-4.384
	c-1.906-1.75-3.759-3.594-5.856-5.084c-4.212-2.993-7.612-2.674-11.479,0.771C49.021,68.207,48.024,69.14,47.156,69.933"/>
<path fill="#0272AA" d="M228.632,24.854c0-0.094,0.001-0.186,0.001-0.277c0.059,0.035,0.116,0.07,0.174,0.105
	C228.749,24.74,228.69,24.798,228.632,24.854"/>
</svg>
