<?xml version="1.0" encoding="utf-8"?>
<!-- Generator: Adobe Illustrator 19.0.0, SVG Export Plug-In . SVG Version: 6.00 Build 0)  -->
<svg version="1.1" id="Capa_1" xmlns="http://www.w3.org/2000/svg" xmlns:xlink="http://www.w3.org/1999/xlink" x="0px" y="0px"
	 viewBox="0 0 34.8 50" style="enable-background:new 0 0 34.8 50;" xml:space="preserve">
<style type="text/css">
	.st0{fill:#4F4F4F;}
</style>
<g id="XMLID_1_">
	<g id="XMLID_28_">
		<path id="XMLID_29_" class="st0" d="M2.3,22.4L23.4,2C24.1,1.3,25,1,26,1c1,0,1.9,0.4,2.6,1.1l3.4,3.5C32.8,6.2,33.2,7,33.2,8
			c0,1-0.4,1.9-1.1,2.6L17.2,25l14.9,14.4c0.5,0.5,0.9,1.1,1,1.7c0.2,0.6,0.2,1.2,0,1.9c-0.2,0.7-0.5,1.2-1,1.6L28.7,48
			C28,48.7,27.1,49,26,49c-1,0-1.9-0.3-2.6-1.1L2.3,27.6C1.5,26.9,1.2,26,1.2,25C1.2,24,1.5,23.1,2.3,22.4z"/>
	</g>
</g>
</svg>
